<svg width="61" height="61" viewBox="0 0 61 61" fill="none" xmlns="http://www.w3.org/2000/svg">
<rect x="0.799927" y="0.200027" width="60" height="60" rx="30" fill="#57C8A3"/>
<g clip-path="url(#clip0_47_947)">
<path d="M18.7999 16.7H42.7999C43.1978 16.7 43.5793 16.8581 43.8606 17.1394C44.1419 17.4207 44.2999 17.8022 44.2999 18.2V42.2C44.2999 42.5979 44.1419 42.9794 43.8606 43.2607C43.5793 43.542 43.1978 43.7 42.7999 43.7H18.7999C18.4021 43.7 18.0206 43.542 17.7393 43.2607C17.458 42.9794 17.2999 42.5979 17.2999 42.2V18.2C17.2999 17.8022 17.458 17.4207 17.7393 17.1394C18.0206 16.8581 18.4021 16.7 18.7999 16.7ZM20.2999 19.7V40.7H41.2999V19.7H20.2999ZM29.3044 36.2L22.9399 29.8355L25.0609 27.7145L29.3044 31.958L37.7884 23.4725L39.9109 25.5935L29.3044 36.2Z" fill="white"/>
</g>
<defs>
<clipPath id="clip0_47_947">
<rect width="36" height="36" fill="white" transform="translate(12.7999 12.2)"/>
</clipPath>
</defs>
</svg>
